<svg width="94" height="107" viewBox="0 0 94 107" fill="none" xmlns="http://www.w3.org/2000/svg">
<path d="M46.4291 0.629578C59.9793 0.629578 70.7064 11.5754 70.7064 24.7665C70.7064 38.2383 59.9793 49.1842 46.4291 49.1842C32.879 49.1842 22.1519 38.2383 22.1519 24.7665C22.1519 11.5754 32.879 0.629578 46.4291 0.629578ZM46.4291 7.08481C36.5489 7.08481 28.6446 15.224 28.6446 24.7665C28.6446 34.5897 36.5489 42.4483 46.4291 42.4483C56.3094 42.4483 64.2137 34.5897 64.2137 24.7665C64.2137 14.9434 56.3094 7.08481 46.4291 7.08481Z" fill="#85CCFF"/>
<path d="M47.1442 58.0118C73.0463 58.0118 94.0558 79.1532 93.4802 104.241C93.4802 107.342 86.8607 107.342 86.8607 104.241C87.1486 82.5358 69.5927 64.4952 47.1442 64.4952C24.6957 64.4952 7.13981 82.5358 7.42761 104.241C7.71541 107.342 0.808183 107.342 0.808183 104.241C0.23258 79.1532 21.2421 58.0118 47.1442 58.0118Z" fill="#85CCFF"/>
</svg>
