<svg width="162" height="47" viewBox="0 0 162 47" fill="none" xmlns="http://www.w3.org/2000/svg">
<path d="M155.221 46.4064H6.53336C3.52013 46.4064 1.07837 43.9816 1.07837 40.9893V6.01014C1.07837 3.01783 3.52013 0.593018 6.53336 0.593018H155.221C158.234 0.593018 160.676 3.01783 160.676 6.01014V40.9893C160.676 43.9816 158.234 46.4064 155.221 46.4064Z" fill="black"/>
<path d="M6.53051 1.18661C3.85208 1.18661 1.67297 3.35059 1.67297 6.01043V40.9896C1.67297 43.6494 3.85208 45.8134 6.53051 45.8134H155.221C157.899 45.8134 160.078 43.6494 160.078 40.9896V6.01043C160.078 3.35059 157.899 1.18661 155.221 1.18661H6.53051ZM155.221 47H6.53051C3.19402 47 0.480957 44.3029 0.480957 40.9896V6.01043C0.480957 2.6971 3.19402 0 6.53051 0H155.221C158.557 0 161.27 2.6971 161.27 6.01043V40.9896C161.27 44.3029 158.557 47 155.221 47Z" fill="#DADADA"/>
<path d="M56.2373 12.3014L55.6254 10.3983C55.4754 9.9282 55.3484 9.40369 55.2329 8.95656H55.2098C55.0973 9.40369 54.9789 9.93967 54.8433 10.3983L54.2429 12.3014H56.2373ZM54.012 13.3648L53.3424 15.5546H51.8762L54.3699 7.83301H56.1796L58.7051 15.5546H57.184L56.4798 13.3648" fill="white"/>
<path d="M60.8265 9.97754L61.7385 12.8036C61.9002 13.2966 62.0127 13.7437 62.1166 14.2023H62.1513C62.2552 13.7437 62.3822 13.3081 62.5323 12.8036L63.4328 9.97754H64.9192L62.7747 15.5552H61.3807L59.291 9.97754" fill="white"/>
<path d="M69.1995 12.8264C68.1951 12.815 67.2369 13.0213 67.2369 13.8697C67.2369 14.42 67.5948 14.6723 68.045 14.6723C68.6194 14.6723 69.0264 14.3054 69.162 13.9041C69.1995 13.8009 69.1995 13.6978 69.1995 13.5946V12.8264ZM70.582 14.2137C70.582 14.7181 70.6051 15.2111 70.6744 15.5522H69.3929L69.2919 14.936H69.2544C68.9225 15.3688 68.3337 15.6783 67.5948 15.6783C66.4634 15.6783 65.8313 14.8672 65.8313 14.0188C65.8313 12.6201 67.0868 11.9007 69.162 11.9121V11.8204C69.162 11.4535 69.0148 10.8459 68.022 10.8459C67.4678 10.8459 66.8905 11.0179 66.5096 11.2586L66.2325 10.3414C66.6481 10.0892 67.3754 9.85132 68.2644 9.85132C70.0625 9.85132 70.582 10.9835 70.582 12.2102" fill="white"/>
<path d="M72.5879 9.97726H74.005V15.5549H72.5879V9.97726ZM73.2893 9.17472C72.8188 9.17472 72.5071 8.83078 72.5071 8.41804C72.5071 7.98238 72.8275 7.6499 73.3037 7.6499C73.7857 7.6499 74.0859 7.98238 74.0974 8.41804C74.0974 8.83078 73.7857 9.17472 73.3037 9.17472" fill="white"/>
<path d="M76.0454 15.5547H77.4654V7.40894H76.0454V15.5547Z" fill="white"/>
<path d="M82.4935 12.8264C81.4891 12.815 80.5308 13.0213 80.5308 13.8697C80.5308 14.42 80.8887 14.6723 81.339 14.6723C81.9162 14.6723 82.3203 14.3054 82.4588 13.9041C82.4935 13.8009 82.4935 13.6978 82.4935 13.5946V12.8264ZM83.876 14.2137C83.876 14.7181 83.8991 15.2111 83.9684 15.5522H82.6897L82.5858 14.936H82.5512C82.2164 15.3688 81.6276 15.6783 80.8887 15.6783C79.7602 15.6783 79.1252 14.8672 79.1252 14.0188C79.1252 12.6201 80.3836 11.9007 82.4588 11.9121V11.8204C82.4588 11.4535 82.3088 10.8459 81.3159 10.8459C80.7617 10.8459 80.1845 11.0179 79.8064 11.2586L79.5293 10.3414C79.9449 10.0892 80.6694 9.85132 81.5583 9.85132C83.3565 9.85132 83.876 10.9835 83.876 12.2102" fill="white"/>
<path d="M87.3019 13.2503C87.3019 13.3649 87.3134 13.4796 87.3365 13.5827C87.4866 14.156 87.9831 14.5687 88.5921 14.5687C89.481 14.5687 90.0236 13.8694 90.0236 12.7372C90.0236 11.7512 89.5503 10.9487 88.6036 10.9487C88.0263 10.9487 87.4982 11.3614 87.3481 11.9805C87.325 12.0837 87.3019 12.2098 87.3019 12.3474V13.2503ZM85.8819 7.40894H87.3019V10.7423H87.325C87.6713 10.2035 88.2803 9.85094 89.1231 9.85094C90.497 9.85094 91.4754 10.9831 91.4639 12.6799C91.4639 14.6834 90.1853 15.6808 88.9153 15.6808C88.188 15.6808 87.5443 15.4056 87.1403 14.7178H87.1172L87.0479 15.5547H85.8357C85.8588 15.1763 85.8819 14.5572 85.8819 13.9955" fill="white"/>
<path d="M93.135 15.5547H94.5522V7.40894H93.135V15.5547Z" fill="white"/>
<path d="M100.076 12.1758C100.088 11.6599 99.857 10.8115 98.9132 10.8115C98.0358 10.8115 97.6664 11.6026 97.6086 12.1758H100.076ZM97.6086 13.1589C97.6433 14.1678 98.4399 14.6035 99.3404 14.6035C99.9956 14.6035 100.457 14.5003 100.896 14.3513L101.104 15.3114C100.619 15.5207 99.9494 15.6668 99.1441 15.6668C97.32 15.6668 96.2463 14.5576 96.2463 12.8522C96.2463 11.3045 97.193 9.85132 98.994 9.85132C100.815 9.85132 101.416 11.3389 101.416 12.5656C101.416 12.8293 101.393 13.0357 101.369 13.1589" fill="white"/>
<path d="M108.461 14.6608C109.266 14.6608 109.832 13.8812 109.832 12.749C109.832 11.8777 109.44 10.8688 108.473 10.8688C107.468 10.8688 107.064 11.8433 107.064 12.772C107.064 13.8468 107.607 14.6608 108.447 14.6608H108.461ZM108.415 15.6812C106.833 15.6812 105.601 14.6035 105.601 12.8064C105.601 10.972 106.81 9.85132 108.507 9.85132C110.178 9.85132 111.298 11.0179 111.298 12.7147C111.298 14.764 109.844 15.6812 108.426 15.6812" fill="white"/>
<path d="M112.966 11.637C112.966 10.9949 112.946 10.4561 112.923 9.97457H114.156L114.225 10.8115H114.259C114.513 10.3758 115.125 9.85132 116.06 9.85132C117.039 9.85132 118.055 10.479 118.055 12.2446V15.5522H116.635V12.4051C116.635 11.6026 116.335 10.9949 115.564 10.9949C114.998 10.9949 114.606 11.3962 114.456 11.8204C114.41 11.935 114.386 12.107 114.386 12.2675V15.5522H112.966" fill="white"/>
<path d="M124.592 8.54419V9.97442H125.94V11.0292H124.592V13.4798C124.592 14.1677 124.777 14.5116 125.316 14.5116C125.57 14.5116 125.709 14.5002 125.871 14.4543L125.894 15.5177C125.686 15.6008 125.305 15.6667 124.866 15.6667C124.338 15.6667 123.911 15.4947 123.645 15.211C123.334 14.89 123.195 14.374 123.195 13.6403V11.0292H122.398V9.97442H123.195V8.93399" fill="white"/>
<path d="M127.519 7.40894H128.939V10.7309H128.962C129.135 10.4672 129.378 10.2493 129.666 10.1003C129.955 9.94266 130.287 9.85094 130.645 9.85094C131.603 9.85094 132.604 10.4786 132.604 12.2672V15.5547H131.187V12.4162C131.187 11.6137 130.887 10.9946 130.102 10.9946C129.551 10.9946 129.158 11.3614 128.997 11.7856C128.95 11.9117 128.939 12.0608 128.939 12.2098V15.5547H127.519" fill="white"/>
<path d="M138.094 12.1758C138.105 11.6599 137.875 10.8115 136.928 10.8115C136.05 10.8115 135.684 11.6026 135.626 12.1758H138.094ZM135.626 13.1589C135.661 14.1678 136.455 14.6035 137.355 14.6035C138.013 14.6035 138.475 14.5003 138.911 14.3513L139.121 15.3114C138.637 15.5207 137.967 15.6668 137.159 15.6668C135.338 15.6668 134.264 14.5576 134.264 12.8522C134.264 11.3045 135.211 9.85132 137.009 9.85132C138.83 9.85132 139.43 11.3389 139.43 12.5656C139.43 12.8293 139.407 13.0357 139.384 13.1589" fill="white"/>
<path d="M36.3656 23.0415C36.3281 19.2208 39.5145 17.3606 39.6617 17.2747C37.8578 14.6607 35.061 14.3053 34.0768 14.2766C31.7303 14.033 29.4531 15.6753 28.2582 15.6753C27.0373 15.6753 25.193 14.3024 23.2101 14.3425C20.6529 14.3827 18.2631 15.853 16.9528 18.1316C14.2512 22.7835 16.2658 29.6165 18.8577 33.377C20.1565 35.2171 21.6689 37.275 23.6517 37.2005C25.5913 37.1202 26.3157 35.9738 28.6565 35.9738C30.977 35.9738 31.6581 37.2005 33.6814 37.1546C35.7624 37.1202 37.0727 35.3059 38.3225 33.4458C39.8233 31.3362 40.4237 29.2583 40.4467 29.1522C40.3977 29.135 36.406 27.6216 36.3656 23.0415Z" fill="white"/>
<path d="M32.5442 11.8062C33.5861 10.5106 34.3048 8.74505 34.1027 6.95654C32.5932 7.02533 30.7056 7.99411 29.6175 9.26097C28.6564 10.3788 27.7934 12.2103 28.0185 13.93C29.7156 14.0561 31.456 13.0816 32.5442 11.8062Z" fill="white"/>
<path d="M59.7729 30.3365L58.4337 26.2292C58.2923 25.8107 58.0268 24.8219 57.6342 23.2684H57.5881C57.4322 23.9362 57.1782 24.9251 56.8347 26.2292L55.5186 30.3365H59.7729ZM64.4025 36.8972H61.6981L60.2174 32.2769H55.0741L53.6628 36.8972H51.0305L56.1334 21.1675H59.2794" fill="white"/>
<path d="M74.9315 31.1786C74.9315 30.0722 74.6803 29.1636 74.1781 28.4471C73.6298 27.7019 72.8938 27.3264 71.9702 27.3264C71.3439 27.3264 70.7724 27.5356 70.2673 27.9455C69.7593 28.3611 69.4245 28.9 69.2658 29.5706C69.1878 29.8802 69.1503 30.1353 69.1503 30.3359V32.2276C69.1503 33.0531 69.4043 33.7496 69.9123 34.3171C70.4231 34.8875 71.0841 35.1683 71.898 35.1683C72.8562 35.1683 73.6009 34.8043 74.1291 34.0706C74.6659 33.3397 74.9315 32.3767 74.9315 31.1786ZM77.5175 31.084C77.5175 33.013 76.9922 34.5406 75.9416 35.6585C75.0007 36.6559 73.8318 37.1518 72.4406 37.1518C70.934 37.1518 69.8546 36.6129 69.1965 35.5409H69.1503V41.517H66.6104V29.2869C66.6104 28.0745 66.5816 26.8306 66.5181 25.5522H68.7491L68.8906 27.3522H68.9396C69.7853 25.9965 71.0697 25.3201 72.7927 25.3201C74.1377 25.3201 75.2663 25.8503 76.1639 26.9079C77.0644 27.9684 77.5175 29.3585 77.5175 31.084Z" fill="white"/>
<path d="M88.0667 31.1786C88.0667 30.0722 87.8156 29.1636 87.3134 28.4471C86.7651 27.7019 86.0291 27.3264 85.1055 27.3264C84.4792 27.3264 83.9106 27.5356 83.4026 27.9455C82.8917 28.3611 82.5627 28.9 82.4068 29.5706C82.326 29.8802 82.2885 30.1353 82.2885 30.3359V32.2276C82.2885 33.0531 82.5396 33.7496 83.0476 34.3171C83.5584 34.8875 84.2194 35.1683 85.0362 35.1683C85.9915 35.1683 86.7362 34.8043 87.2673 34.0706C87.7983 33.3397 88.0667 32.3767 88.0667 31.1786ZM90.6499 31.084C90.6499 33.013 90.1275 34.5406 89.0769 35.6585C88.136 36.6559 86.97 37.1518 85.5759 37.1518C84.0722 37.1518 82.9927 36.6129 82.3318 35.5409H82.2885V41.517H79.7486V29.2869C79.7486 28.0745 79.7169 26.8306 79.6562 25.5522H81.8873L82.0287 27.3522H82.0778C82.9206 25.9965 84.205 25.3201 85.928 25.3201C87.2759 25.3201 88.3987 25.8503 89.3021 26.9079C90.2026 27.9684 90.6499 29.3585 90.6499 31.084Z" fill="white"/>
<path d="M105.341 32.4858C105.341 33.8214 104.873 34.9106 103.932 35.7533C102.899 36.6705 101.465 37.129 99.6203 37.129C97.9145 37.129 96.5464 36.8023 95.5103 36.1488L96.099 34.0507C97.216 34.7186 98.4369 35.051 99.7703 35.051C100.726 35.051 101.47 34.8389 102.004 34.4119C102.535 33.982 102.801 33.4087 102.801 32.6922C102.801 32.0559 102.584 31.5142 102.146 31.0785C101.707 30.6428 100.977 30.2387 99.9579 29.8632C97.1843 28.8343 95.7989 27.3295 95.7989 25.3518C95.7989 24.0592 96.2838 22.9987 97.2564 22.1732C98.2262 21.3477 99.5192 20.9321 101.133 20.9321C102.576 20.9321 103.774 21.1844 104.729 21.6802L104.094 23.7353C103.202 23.2538 102.192 23.0101 101.063 23.0101C100.169 23.0101 99.4731 23.228 98.9737 23.6636C98.5523 24.0534 98.3388 24.5292 98.3388 25.0881C98.3388 25.7101 98.5783 26.2231 99.0661 26.6273C99.4875 26.9999 100.255 27.404 101.369 27.8425C102.732 28.3871 103.733 29.0234 104.377 29.7543C105.018 30.4852 105.341 31.3966 105.341 32.4858Z" fill="white"/>
<path d="M113.728 27.4444H110.932V32.9504C110.932 34.3519 111.425 35.0513 112.415 35.0513C112.865 35.0513 113.243 35.014 113.541 34.9367L113.61 36.8484C113.114 37.0376 112.453 37.1293 111.639 37.1293C110.637 37.1293 109.852 36.8255 109.286 36.2207C108.724 35.6131 108.441 34.5927 108.441 33.1625V27.4444H106.772V25.5527H108.441V23.4776L110.932 22.7295V25.5527H113.728" fill="white"/>
<path d="M123.717 31.213C123.717 30.1668 123.489 29.2726 123.033 28.5216C122.505 27.6159 121.743 27.163 120.756 27.163C119.737 27.163 118.961 27.6159 118.43 28.5216C117.974 29.2726 117.752 30.184 117.752 31.2617C117.752 32.3079 117.974 33.2021 118.43 33.9502C118.978 34.8559 119.746 35.3088 120.736 35.3088C121.703 35.3088 122.465 34.8502 123.013 33.9273C123.484 33.1649 123.717 32.2591 123.717 31.213ZM126.35 31.1327C126.35 32.8754 125.85 34.3056 124.846 35.4263C123.795 36.5785 122.401 37.1518 120.664 37.1518C118.984 37.1518 117.651 36.5986 116.655 35.4951C115.662 34.3916 115.166 32.9986 115.166 31.319C115.166 29.5592 115.676 28.1203 116.704 27.0025C117.729 25.879 119.111 25.3201 120.849 25.3201C122.525 25.3201 123.876 25.8732 124.892 26.9767C125.865 28.0544 126.35 29.4359 126.35 31.1327Z" fill="white"/>
<path d="M134.599 27.7707C134.348 27.7248 134.082 27.7019 133.799 27.7019C132.907 27.7019 132.215 28.0372 131.73 28.7051C131.308 29.2984 131.098 30.0436 131.098 30.9436V36.8967H128.561L128.581 29.1264C128.581 27.8165 128.549 26.6271 128.489 25.5522H130.699L130.792 27.7248H130.858C131.127 26.9796 131.551 26.3777 132.128 25.9277C132.694 25.5236 133.306 25.3201 133.964 25.3201C134.198 25.3201 134.411 25.3373 134.599 25.3659" fill="white"/>
<path d="M143.526 30.0352C143.543 29.29 143.379 28.6422 143.035 28.0976C142.596 27.3983 141.918 27.0457 141.012 27.0457C140.183 27.0457 139.508 27.3897 138.991 28.0747C138.57 28.6193 138.316 29.2728 138.244 30.0352H143.526ZM145.944 30.6887C145.944 31.1416 145.916 31.5199 145.855 31.8323H138.244C138.27 32.953 138.639 33.81 139.346 34.4004C139.987 34.9307 140.818 35.1915 141.837 35.1915C142.963 35.1915 143.99 35.0138 144.917 34.6555L145.315 36.4068C144.233 36.8711 142.957 37.109 141.482 37.109C139.713 37.109 138.322 36.5902 137.312 35.5526C136.304 34.5208 135.796 33.1307 135.796 31.388C135.796 29.6769 136.264 28.2524 137.208 27.1174C138.192 25.9021 139.525 25.2974 141.199 25.2974C142.845 25.2974 144.094 25.9021 144.94 27.1174C145.612 28.0804 145.944 29.2728 145.944 30.6887Z" fill="white"/>
</svg>
