<svg width="129" height="129" viewBox="0 0 129 129" fill="none" xmlns="http://www.w3.org/2000/svg">
<circle cx="64.5" cy="64.9683" r="64" fill="#FCE8EB"/>
<g clip-path="url(#clip0_1_2394)">
<path d="M44.6606 76.0073C45.4575 75.5477 45.7303 74.5275 45.2706 73.7306C44.8104 72.9344 43.7908 72.6609 42.994 73.1206C42.1971 73.5809 41.9236 74.601 42.3839 75.3973C42.8436 76.1942 43.8637 76.4676 44.6606 76.0073Z" fill="#E96A73"/>
<path d="M37.8306 87.5106L46.2239 102.049C48.035 105.19 52.1093 106.352 55.3313 104.49C58.5194 102.647 59.6151 98.5737 57.7707 95.383L52.7707 86.7215L57.1008 84.2215C57.8977 83.7606 58.1711 82.7417 57.7108 81.9448L55.5435 78.1909C55.802 78.1408 57.5012 77.8075 87.4667 71.9292C91.1711 71.728 93.3905 67.6766 91.5194 64.4377L85.9804 54.8439L89.5201 49.4826C89.8677 48.9552 89.8886 48.2775 89.5728 47.7306L86.2395 41.9572C85.9237 41.4103 85.3241 41.09 84.6959 41.1271L78.2837 41.5119L72.1347 30.8608C71.244 29.3179 69.6483 28.3836 67.8671 28.3615C67.8456 28.3608 67.8248 28.3608 67.8033 28.3608C66.0819 28.3608 64.5194 29.2176 63.5936 30.6662L41.8215 58.4019L27.6672 66.5737C22.1002 69.7866 20.1718 76.9286 23.397 82.5106C26.3436 87.6147 32.5559 89.6226 37.8306 87.5106ZM54.8847 97.0503C55.8052 98.6427 55.2603 100.681 53.6633 101.603C52.0611 102.529 50.0207 101.96 49.1106 100.383L40.7772 85.9474L46.5507 82.6141C56.1952 99.3211 54.7297 96.7827 54.8847 97.0503ZM51.1041 83.8341L49.4374 80.9474L52.3241 79.2808L53.9908 82.1675L51.1041 83.8341ZM83.8677 44.5158L86.1711 48.5054L84.1171 51.616L80.147 44.7391L83.8677 44.5158ZM66.3814 32.4937C66.8287 31.7619 67.5383 31.6864 67.8261 31.6942C68.1106 31.6974 68.8196 31.786 69.2473 32.5269L88.6327 66.1043C89.2642 67.1974 88.4966 68.5718 87.2304 68.603C87.0032 68.6082 86.8983 68.6493 86.3163 68.758L65.8104 33.2404C66.2408 32.687 66.2961 32.6336 66.3814 32.4937ZM63.5923 36.0659L82.8586 69.4364L53.7818 75.1395L44.9406 59.8263L63.5923 36.0659ZM26.2837 80.8439C25.552 79.5776 25.1653 78.1401 25.1653 76.6857C25.1653 73.7131 26.7629 70.9448 29.3339 69.4604L42.3241 61.9604L50.6574 76.394L37.6672 83.8947C33.6874 86.1916 28.5813 84.8231 26.2837 80.8439Z" fill="#E96A73"/>
<path d="M39.4974 77.064C39.0371 76.2672 38.0176 75.9937 37.2207 76.454L34.334 78.1207C33.5384 78.5803 32.5169 78.3062 32.0573 77.5106C31.597 76.7138 30.5775 76.4403 29.7806 76.9006C28.9837 77.3609 28.7103 78.3804 29.1706 79.1773C30.5423 81.5536 33.6022 82.3915 36.0006 81.0074L38.8874 79.3407C39.6842 78.8804 39.9577 77.8615 39.4974 77.064Z" fill="#E96A73"/>
<path d="M104.689 31.9262L95.4022 37.0942C94.5982 37.5421 94.3085 38.557 94.7564 39.3611C95.203 40.1645 96.2173 40.4555 97.0233 40.0069L106.31 34.8389C107.114 34.391 107.403 33.3761 106.956 32.572C106.508 31.7673 105.493 31.4783 104.689 31.9262Z" fill="#E96A73"/>
<path d="M103.715 49.1878L97.2759 47.4625C96.3865 47.2242 95.4725 47.7516 95.2342 48.6409C94.9959 49.5302 95.5239 50.4436 96.4132 50.6819L102.853 52.4072C103.748 52.6474 104.657 52.1116 104.894 51.2288C105.133 50.3395 104.605 49.4254 103.715 49.1878Z" fill="#E96A73"/>
<path d="M87.5332 25.8709L85.806 32.311C85.5677 33.2003 86.0951 34.1137 86.9844 34.3526C87.8731 34.5903 88.7871 34.0642 89.0261 33.1743L90.7526 26.7342C90.9909 25.8448 90.4635 24.9308 89.5742 24.6925C88.6856 24.4542 87.7715 24.9816 87.5332 25.8709Z" fill="#E96A73"/>
</g>
<defs>
<clipPath id="clip0_1_2394">
<rect width="85.3333" height="85.3333" fill="white" transform="translate(21.8333 22.3018)"/>
</clipPath>
</defs>
</svg>
