<svg width="128" height="129" viewBox="0 0 128 129" fill="none" xmlns="http://www.w3.org/2000/svg">
<circle cx="63.9999" cy="64.9683" r="64" fill="#F8EFF5"/>
<g clip-path="url(#clip0_1_1764)">
<path d="M99.9506 94.005H95.8024V37.3137C95.8024 35.0322 93.9358 33.1655 91.6543 33.1655H80.5926C78.3111 33.1655 76.4444 35.0322 76.4444 37.3137V94.005H73.679V56.6717C73.679 54.3902 71.8123 52.5236 69.5308 52.5236H58.4691C56.1876 52.5236 54.3209 54.3902 54.3209 56.6717V94.005H51.5555V76.0297C51.5555 73.7482 49.6888 71.8816 47.4074 71.8816H36.3456C34.0642 71.8816 32.1975 73.7482 32.1975 76.0297V94.005H28.0493C27.2888 94.005 26.6666 94.6273 26.6666 95.3877C26.6666 96.1482 27.2888 96.7705 28.0493 96.7705H99.9506C100.711 96.7705 101.333 96.1482 101.333 95.3877C101.333 94.6273 100.711 94.005 99.9506 94.005ZM48.7901 94.005H34.9629V76.0297C34.9629 75.2692 35.5851 74.647 36.3456 74.647H47.4074C48.1679 74.647 48.7901 75.2692 48.7901 76.0297V94.005ZM70.9135 94.005H57.0864V56.6717C57.0864 55.9112 57.7086 55.289 58.4691 55.289H69.5308C70.2913 55.289 70.9135 55.9112 70.9135 56.6717V94.005ZM93.037 94.005H79.2098V37.3137C79.2098 36.5532 79.8321 35.931 80.5926 35.931H91.6543C92.4148 35.931 93.037 36.5532 93.037 37.3137V94.005Z" fill="#C374A6" stroke="#C374A6" stroke-width="0.25"/>
</g>
<defs>
<clipPath id="clip0_1_1764">
<rect width="74.6667" height="74.6667" fill="white" transform="translate(26.6666 27.6348)"/>
</clipPath>
</defs>
</svg>
