<svg width="128" height="129" viewBox="0 0 128 129" fill="none" xmlns="http://www.w3.org/2000/svg">
<circle cx="64" cy="64.9683" r="64" fill="#FCE8EB"/>
<path fill-rule="evenodd" clip-rule="evenodd" d="M36 32.9683H92V90.2185C92 93.936 91.3333 96.9683 85.3902 96.9683H42.6098C36 96.9683 36 94.3016 36 90.2185V32.9683ZM49.665 42.8494C49.665 40.4615 53.2231 40.4615 53.2231 42.8494V53.9007C53.2231 66.3745 74.7769 66.437 74.7769 53.9007V42.8494C74.7769 40.4615 78.335 40.4615 78.335 42.8494V53.9007C78.335 71.1739 49.665 71.2428 49.665 53.9007V42.8494ZM39.0667 36.1149H88.9333V90.2163C88.9333 92.3262 88.9333 93.8483 85.3881 93.8483H42.6077C39.0667 93.8483 39.0667 92.3283 39.0667 90.2163V36.1149Z" fill="#E96A73"/>
</svg>
