<svg width="128" height="129" viewBox="0 0 128 129" fill="none" xmlns="http://www.w3.org/2000/svg">
<circle cx="64" cy="64.9683" r="64" fill="#FFF5E6"/>
<g clip-path="url(#clip0_1_1812)">
<path d="M95.7044 65.06C94.6768 64.092 93.1761 65.6849 94.2034 66.6529C97.4361 69.6988 99.1447 73.3055 99.1447 77.083C99.1447 81.5782 96.6899 85.8648 92.2324 89.1532C91.9527 89.3596 91.7877 89.6864 91.7877 90.0338V98.5727L86.2976 93.0827C86.0001 92.7851 85.5586 92.6848 85.1618 92.8238C81.6192 94.0655 77.8028 94.6951 73.8188 94.6951C59.8541 94.6951 48.493 86.7944 48.493 77.0831C48.493 71.5478 52.2434 66.961 56.7157 64.1069C61.7637 60.8853 67.8737 59.4712 73.8189 59.4712C79.6639 59.4712 85.3702 60.8969 89.8866 63.4857C91.1111 64.1881 92.1996 62.2888 90.975 61.5868C87.5758 59.6385 83.6881 58.3261 79.525 57.7021V31.0452C79.525 29.169 77.9984 27.6426 76.1223 27.6426H30.0694C28.1933 27.6424 26.6667 29.169 26.6667 31.0452V36.2512C26.6667 37.6626 28.8554 37.6626 28.8554 36.2512V31.0452C28.8554 30.3758 29.4 29.8313 30.0694 29.8313H76.122C76.7915 29.8313 77.336 30.3758 77.336 31.0452V57.4396C76.1798 57.3352 75.0059 57.2826 73.8186 57.2826C66.5371 57.2826 59.6777 59.2998 54.5044 62.9626C54.4887 62.9737 54.4735 62.9852 54.4577 62.9965H45.0576C44.7674 62.9965 44.4892 63.1117 44.2837 63.317L34.9601 72.6408V64.0908C34.9601 63.4864 34.4703 62.9965 33.8658 62.9965H30.0694C29.4 62.9965 28.8554 62.4519 28.8554 61.7825V42.0877C28.8554 40.6763 26.6667 40.6763 26.6667 42.0877V61.7825C26.6667 63.6588 28.1933 65.1852 30.0694 65.1852H32.7716V75.2828C32.7716 76.2333 33.9637 76.7326 34.6398 76.0566L45.5111 65.1852H51.7964C48.2314 68.5902 46.3043 72.7218 46.3043 77.0831C46.3043 82.4448 49.2166 87.4595 54.5046 91.2036C59.6779 94.8666 66.5372 96.8838 73.8188 96.8838C77.8066 96.8838 81.642 96.2878 85.231 95.1114L92.1083 101.989C92.7738 102.654 93.9765 102.168 93.9765 101.215V90.579C98.7261 86.9096 101.334 82.1356 101.334 77.0833C101.333 72.6874 99.3869 68.5299 95.7044 65.06Z" fill="#FFAD33" stroke="#FFAD33"/>
<path d="M69.0035 81.5559H86.9507C88.3621 81.5559 88.3621 79.3672 86.9507 79.3672H69.0035C67.5923 79.3672 67.5923 81.5559 69.0035 81.5559Z" fill="#FFAD33" stroke="#FFAD33"/>
<path d="M79.8739 74.1876C79.8739 73.5832 79.3841 73.0933 78.7796 73.0933H60.6865C59.2751 73.0933 59.2751 75.2819 60.6865 75.2819H78.7796C79.3841 75.2819 79.8739 74.792 79.8739 74.1876Z" fill="#FFAD33" stroke="#FFAD33"/>
<path d="M86.9507 73.0933H83.3029C81.8915 73.0933 81.8915 75.2819 83.3029 75.2819H86.9507C88.3621 75.2819 88.3621 73.0933 86.9507 73.0933Z" fill="#FFAD33" stroke="#FFAD33"/>
<path d="M39.9448 51.0603H58.0379C59.4493 51.0603 59.4493 48.8716 58.0379 48.8716H39.9448C38.5334 48.8716 38.5334 51.0603 39.9448 51.0603Z" fill="#FFAD33" stroke="#FFAD33"/>
<path d="M66.209 44.7863C67.6204 44.7863 67.6204 42.5977 66.209 42.5977H48.1159C46.7045 42.5977 46.7045 44.7863 48.1159 44.7863H66.209Z" fill="#FFAD33" stroke="#FFAD33"/>
<path d="M39.9448 44.7863H43.5926C45.004 44.7863 45.004 42.5977 43.5926 42.5977H39.9448C38.5334 42.5977 38.5334 44.7863 39.9448 44.7863Z" fill="#FFAD33" stroke="#FFAD33"/>
<path d="M83.5267 38.8019C86.9209 39.3486 90.2377 41.4383 92.6269 44.5355C94.4102 46.8473 95.5322 49.5092 95.8599 52.1119L94.1151 50.559C93.0609 49.6206 91.6057 51.2554 92.6599 52.1938L96.123 55.2762C96.527 55.8514 97.4073 55.8922 97.8732 55.369L101.024 51.8293C101.962 50.7751 100.328 49.3201 99.3891 50.374L98.0366 51.8935C97.667 48.8869 96.3911 45.8316 94.3599 43.1985C91.6343 39.6654 87.8127 37.2752 83.8747 36.6409C82.4811 36.4159 82.1332 38.5774 83.5267 38.8019Z" fill="#FFAD33" stroke="#FFAD33"/>
<path d="M47.5603 98.2043C42.613 97.4075 38.4605 93.5858 36.44 89.1162C35.8351 87.778 35.4108 86.3526 35.2271 84.8942L36.9719 86.4472C38.0263 87.3855 39.4813 85.7507 38.4271 84.8124L34.964 81.73C34.5595 81.1542 33.6807 81.1129 33.2138 81.6372L30.063 85.1769C29.128 86.2274 30.7565 87.6892 31.6979 86.6322L33.0504 85.1127C33.9414 92.3617 39.8824 99.1847 47.2123 100.365C48.6063 100.589 48.953 98.4286 47.5603 98.2043Z" fill="#FFAD33" stroke="#FFAD33"/>
</g>
<defs>
<clipPath id="clip0_1_1812">
<rect width="74.6667" height="74.6667" fill="white" transform="translate(26.6667 27.6348)"/>
</clipPath>
</defs>
</svg>
