<svg width="129" height="129" viewBox="0 0 129 129" fill="none" xmlns="http://www.w3.org/2000/svg">
<circle cx="64.5" cy="64.9683" r="64" fill="#FCE8EB"/>
<g clip-path="url(#clip0_1_1834)">
<path d="M52.9587 34.6274C42.5985 34.6274 34.1697 43.0562 34.1697 53.4165C34.1697 63.7768 42.5985 72.2054 52.9587 72.2054C63.319 72.2054 71.7477 63.7768 71.7477 53.4165C71.7477 43.0562 63.319 34.6274 52.9587 34.6274ZM52.9587 69.3148C44.1923 69.3148 37.0603 62.1829 37.0603 53.4165C37.0603 44.6501 44.1923 37.5181 52.9587 37.5181C61.7251 37.5181 68.857 44.6501 68.857 53.4165C68.857 62.1829 61.7251 69.3148 52.9587 69.3148Z" fill="#E96A73"/>
<path d="M100.188 91.4693L79.9496 71.2304C79.3851 70.6662 78.4702 70.6662 77.9057 71.2304L77.5633 71.5727L73.2486 67.2578C75.9478 63.3136 77.5292 58.5465 77.5292 53.4165C77.5292 39.8684 66.5069 28.8462 52.959 28.8462C39.4109 28.8462 28.3887 39.8684 28.3887 53.4165C28.3887 66.9646 39.4109 77.9867 52.959 77.9867C58.089 77.9867 62.8561 76.4054 66.8006 73.7059L71.1154 78.0208L70.7518 78.3844C70.1875 78.9488 70.1875 79.8638 70.7518 80.4285L90.9907 100.667C91.5552 101.231 92.4701 101.231 93.0346 100.667L100.189 93.5134C100.752 92.9493 100.753 92.034 100.188 91.4693ZM31.279 53.4166C31.279 41.4625 41.0045 31.737 52.9587 31.737C64.9129 31.737 74.6382 41.4625 74.6382 53.4166C74.6382 65.3708 64.9129 75.0962 52.9587 75.0962C41.0045 75.0962 31.279 65.3708 31.279 53.4166ZM71.4716 69.5693L75.4852 73.5827L73.125 75.9429L69.1114 71.9294C69.9504 71.1969 70.7391 70.4083 71.4716 69.5693ZM92.0122 97.6012L73.8174 79.4065L78.9273 74.2965L97.1222 92.4914L92.0122 97.6012Z" fill="#E96A73"/>
<path d="M52.9587 63.5337C47.3801 63.5337 42.8416 58.9951 42.8416 53.4165C42.8416 52.6183 42.1945 51.9712 41.3962 51.9712C40.598 51.9712 39.9509 52.6183 39.9509 53.4165C39.9509 60.589 45.7862 66.4242 52.9587 66.4242C53.757 66.4242 54.4041 65.7771 54.4041 64.979C54.4041 64.1808 53.757 63.5337 52.9587 63.5337Z" fill="#E96A73"/>
</g>
<defs>
<clipPath id="clip0_1_1834">
<rect width="74" height="74" fill="white" transform="translate(27.5 27.9683)"/>
</clipPath>
</defs>
</svg>
