<svg width="128" height="129" viewBox="0 0 128 129" fill="none" xmlns="http://www.w3.org/2000/svg">
<circle cx="63.9999" cy="64.9683" r="64" fill="#FCE8EB"/>
<g clip-path="url(#clip0_479_46572)">
<path d="M60.2902 76.792H50.6548C50.0561 76.792 49.5708 77.2773 49.5708 77.876C49.5708 78.4746 50.0561 78.96 50.6548 78.96H60.2902C60.8889 78.96 61.3742 78.4746 61.3742 77.876C61.3742 77.2773 60.889 76.792 60.2902 76.792Z" fill="#E96A73"/>
<path d="M60.2902 81.3208H50.6548C50.0561 81.3208 49.5708 81.8061 49.5708 82.4048C49.5708 83.0034 50.0561 83.4888 50.6548 83.4888H60.2902C60.8889 83.4888 61.3742 83.0034 61.3742 82.4048C61.3742 81.8061 60.889 81.3208 60.2902 81.3208Z" fill="#E96A73"/>
<path d="M97.9495 69.7438H96.4822C95.3074 69.7438 94.2875 70.4124 93.7779 71.388H92.7289C89.5668 71.388 90.0265 67.1145 84.7936 66.1557V58.7898C84.7936 58.1912 84.3083 57.7058 83.7097 57.7058C83.111 57.7058 82.6257 58.1912 82.6257 58.7898V68.3712C82.6257 69.7062 81.5395 70.7924 80.2045 70.7924H76.6589C74.6924 70.7924 73.0925 72.3922 73.0925 74.3587C73.0925 76.3252 74.6924 77.9252 76.6589 77.9252H81.8743C82.1347 77.9252 82.3885 77.9727 82.6258 78.0646V87.5722C82.6258 88.742 81.6745 89.7617 80.4363 89.7617H47.6441C46.4366 89.7617 45.4546 88.7794 45.4546 87.5722V68.9035C47.001 69.0381 50.2737 69.0203 52.981 69.0051C54.8375 69.0051 56.3477 67.4948 56.3477 65.6384C56.3477 64.9864 56.1614 64.3771 55.8393 63.861C56.7326 63.2549 57.3207 62.2312 57.3207 61.0728C57.3207 60.4405 57.1455 59.8483 56.8412 59.3423C57.7743 58.7431 58.3939 57.6961 58.3939 56.5072C58.3939 55.6574 58.0795 54.8795 57.5583 54.2863C58.1669 53.6572 58.5023 52.8318 58.5044 51.9546C58.5044 51.9503 58.5044 51.9458 58.5044 51.9415C58.5044 50.085 56.9941 48.5746 55.1376 48.5746L46.4314 48.5742C45.8932 48.5739 45.4553 48.1357 45.4553 47.5974C45.4551 47.0624 45.4556 49.536 45.4544 42.364C45.4544 41.1567 46.4366 40.1745 47.6439 40.1745H72.2817V46.1607C72.2817 48.5635 74.2365 50.5181 76.6392 50.5181H82.6254V53.7222C82.6254 54.3209 83.1107 54.8062 83.7094 54.8062C84.308 54.8062 84.7934 54.3209 84.7934 53.7222V50.2922C84.7934 49.4184 84.4325 48.6243 83.8692 48.061C83.8692 48.061 83.8692 48.061 83.8691 48.0608L74.7388 38.9306C74.1862 38.3781 73.3964 38.0063 72.5075 38.0063H47.6438C45.2409 38.0063 43.2863 39.9611 43.2863 42.3638V45.1994C38.0105 46.1179 38.424 50.4449 35.2707 50.4449H34.2219C33.7124 49.4693 32.6924 48.8008 31.5177 48.8008H30.0504C28.3684 48.8008 26.9999 50.1692 26.9999 51.8513V65.1467C26.9999 66.8288 28.3684 68.1972 30.0504 68.1972H31.5177C32.712 68.1972 33.7452 67.5058 34.2457 66.5037H36.9113C37.8443 66.5037 38.1822 66.8442 41.2598 68.0119C41.2769 68.0187 41.2939 68.0251 41.3113 68.0308C42.004 68.267 42.6551 68.4452 43.2864 68.5811V87.5722C43.2864 89.9749 45.2412 91.9297 47.6439 91.9297H80.4359C82.1032 91.9297 83.554 90.9879 84.2865 89.6089C86.7951 89.1376 87.7495 88.4819 90.0028 87.655C90.8476 87.3182 91.303 87.4972 93.7539 87.4467C94.2544 88.4488 95.2876 89.1402 96.4819 89.1402H97.9492C99.6312 89.1402 101 87.7718 101 86.0897V72.7943C101 71.1124 99.6315 69.7438 97.9495 69.7438ZM74.4498 46.1605V41.7074C75.4905 42.748 80.0513 47.3087 81.0926 48.3502H76.6393C75.4321 48.35 74.4498 47.3679 74.4498 46.1605ZM36.9115 64.3357H34.5683V59.4127C34.5683 58.8141 34.083 58.3287 33.4843 58.3287C32.8857 58.3287 32.4003 58.8141 32.4003 59.4127V65.1467C32.4003 65.1771 32.3988 65.2071 32.3957 65.2368C32.3947 65.2427 32.3938 65.2488 32.393 65.2547C32.3395 65.6904 31.9678 66.0292 31.5177 66.0292H30.0504C29.5638 66.0292 29.1679 65.6333 29.1679 65.1467V51.8513C29.1679 51.3646 29.5638 50.9688 30.0504 50.9688H31.5177C32.0043 50.9688 32.4002 51.3646 32.4002 51.8513V54.3452C32.4002 54.9438 32.8855 55.4292 33.4842 55.4292C34.0828 55.4292 34.5682 54.9438 34.5682 54.3452V52.613H35.2707C39.8611 52.613 39.2576 48.3731 43.2872 47.409V47.5974C43.2872 49.3305 44.6971 50.7411 46.4301 50.7422L55.1376 50.7426C55.794 50.7426 56.3288 51.2729 56.3363 51.9275C56.3363 51.9331 56.3362 51.9386 56.3362 51.9441C56.3362 51.9496 56.3362 51.9551 56.3363 51.9604C56.3287 52.6161 55.7955 53.1453 55.1371 53.1453C55.1367 53.1453 55.1363 53.1453 55.1358 53.1453C55.1342 53.1453 55.1327 53.1456 55.1309 53.1456C55.0254 53.1354 55.5764 53.1424 46.5836 53.1404C45.985 53.1404 45.4997 53.6257 45.4997 54.2243C45.4997 54.823 45.985 55.3083 46.5836 55.3083C48.648 55.3092 54.9228 55.305 55.0845 55.3127C55.7244 55.3429 56.2257 55.8677 56.2257 56.5072C56.2257 57.1683 55.6879 57.706 55.027 57.706C53.1997 57.706 48.5384 57.706 46.5838 57.706C45.9851 57.706 45.4998 58.1913 45.4998 58.7899C45.4998 59.3886 45.9851 59.8739 46.5838 59.8739H53.954C54.6151 59.8739 55.1527 60.4117 55.1527 61.0728C55.1527 61.7339 54.6149 62.2716 53.954 62.2716C52.3306 62.2716 49.1415 62.2716 46.5838 62.2716C45.9851 62.2716 45.4998 62.7569 45.4998 63.3555C45.4998 63.9542 45.9851 64.4395 46.5838 64.4395H52.9809C53.642 64.4395 54.1796 64.9773 54.1796 65.6384C54.1796 66.2995 53.6418 66.8372 52.9809 66.8372C46.8876 66.8766 44.8754 66.9506 42.0362 65.9876C39.1755 64.9316 38.4561 64.3357 36.9115 64.3357ZM89.2006 85.6411C86.5283 86.6641 86.2547 86.9065 84.7936 87.2786V80.5133C85.6828 81.3414 86.8602 81.8198 88.1289 81.8198C88.7275 81.8198 89.2128 81.3345 89.2128 80.7359C89.2128 80.1372 88.7275 79.6519 88.1289 79.6519C87.0749 79.6519 86.1316 79.0615 85.6671 78.111C84.9539 76.6523 83.4658 75.7575 81.8741 75.7575H76.6587C75.8876 75.7575 75.2604 75.1302 75.2604 74.359C75.2604 73.5879 75.8876 72.9606 76.6587 72.9606H80.2043C82.7347 72.9606 84.7932 70.9024 84.7935 68.3721C88.7346 69.3605 88.1627 73.5561 92.7287 73.5561H93.4314V85.2789C91.5025 85.3437 90.5813 85.0907 89.2006 85.6411ZM98.832 86.0899C98.832 86.5765 98.4361 86.9724 97.9495 86.9724H96.4822C96.0321 86.9724 95.6604 86.6336 95.6069 86.1978C95.606 86.1919 95.6052 86.1858 95.6042 86.1799C95.6011 86.1503 95.5995 86.1202 95.5995 86.0899V72.7944C95.5995 72.3078 95.9954 71.9119 96.482 71.9119H97.9493C98.436 71.9119 98.8318 72.3078 98.8318 72.7944V86.0899H98.832Z" fill="#E96A73"/>
</g>
<defs>
<clipPath id="clip0_479_46572">
<rect width="74" height="74" fill="white" transform="translate(26.9999 27.9683)"/>
</clipPath>
</defs>
</svg>
