<svg width="25" height="24" viewBox="0 0 25 24" fill="none" xmlns="http://www.w3.org/2000/svg">
<path d="M6.86523 19V10C6.86523 8.4087 7.49738 6.88258 8.62259 5.75736C9.74781 4.63214 11.2739 4 12.8652 4C14.4565 4 15.9827 4.63214 17.1079 5.75736C18.2331 6.88258 18.8652 8.4087 18.8652 10V19M6.86523 19H18.8652M6.86523 19H4.86523M18.8652 19H20.8652M11.8652 22H13.8652" stroke="#666666" stroke-width="2" stroke-linecap="round" stroke-linejoin="round"/>
<path d="M12.8652 4C13.4175 4 13.8652 3.55228 13.8652 3C13.8652 2.44772 13.4175 2 12.8652 2C12.3129 2 11.8652 2.44772 11.8652 3C11.8652 3.55228 12.3129 4 12.8652 4Z" stroke="#666666" stroke-width="2"/>
</svg>
