<svg width="161" height="47" viewBox="0 0 161 47" fill="none" xmlns="http://www.w3.org/2000/svg">
<path d="M154.796 46.6187H6.10855C3.09532 46.6187 0.653564 44.1937 0.653564 41.2041V6.21994C0.653564 3.23031 3.09532 0.80249 6.10855 0.80249H154.796C157.809 0.80249 160.251 3.23031 160.251 6.21994V41.2041C160.251 44.1937 157.809 46.6187 154.796 46.6187Z" fill="black"/>
<path d="M6.10571 1.18381C3.42728 1.18381 1.24817 3.34793 1.24817 6.00793V40.9921C1.24817 43.6521 3.42728 45.8133 6.10571 45.8133H154.796C157.475 45.8133 159.654 43.6521 159.654 40.9921V6.00793C159.654 3.34793 157.475 1.18381 154.796 1.18381H6.10571ZM154.796 47H6.10571C2.76922 47 0.0561523 44.3056 0.0561523 40.9921V6.00793C0.0561523 2.6944 2.76922 0 6.10571 0H154.796C158.133 0 160.846 2.6944 160.846 6.00793V40.9921C160.846 44.3056 158.133 47 154.796 47Z" fill="#DADADA"/>
<path d="M127.279 35.6489H129.495V20.8957H127.279V35.6489ZM147.251 26.21L144.709 32.6077H144.634L141.996 26.21H139.606L143.563 35.1502L141.306 40.1234H143.621L149.716 26.21H147.251ZM134.673 33.9721C133.949 33.9721 132.936 33.6138 132.936 32.7195C132.936 31.5816 134.197 31.1459 135.285 31.1459C136.261 31.1459 136.72 31.3551 137.311 31.6389C137.138 33.0061 135.955 33.9721 134.673 33.9721ZM134.942 25.8889C133.337 25.8889 131.674 26.5912 130.985 28.1476L132.953 28.9617C133.374 28.1476 134.157 27.8811 134.979 27.8811C136.128 27.8811 137.291 28.5633 137.311 29.7786V29.9305C136.91 29.7041 136.05 29.3601 134.999 29.3601C132.878 29.3601 130.719 30.5181 130.719 32.6822C130.719 34.6572 132.457 35.9298 134.408 35.9298C135.897 35.9298 136.72 35.2648 137.236 34.4852H137.311V35.626H139.453V29.9678C139.453 27.3508 137.484 25.8889 134.942 25.8889ZM121.238 28.0072H118.083V22.948H121.238C122.897 22.948 123.835 24.3124 123.835 25.4762C123.835 26.6227 122.897 28.0072 121.238 28.0072ZM121.18 20.8957H115.866V35.6489H118.083V30.0595H121.18C123.639 30.0595 126.055 28.291 126.055 25.4762C126.055 22.6614 123.639 20.8957 121.18 20.8957ZM92.208 33.975C90.6754 33.975 89.391 32.7023 89.391 30.9538C89.391 29.1853 90.6754 27.8925 92.208 27.8925C93.7204 27.8925 94.9066 29.1853 94.9066 30.9538C94.9066 32.7023 93.7204 33.975 92.208 33.975ZM94.7508 27.0355H94.6757C94.1793 26.4479 93.2211 25.9147 92.0146 25.9147C89.4863 25.9147 87.1715 28.1218 87.1715 30.9538C87.1715 33.7686 89.4863 35.9556 92.0146 35.9556C93.2211 35.9556 94.1793 35.4225 94.6757 34.8148H94.7508V35.5343C94.7508 37.4548 93.7204 38.4838 92.0521 38.4838C90.6927 38.4838 89.8499 37.5121 89.5065 36.6952L87.5727 37.4949C88.1268 38.8249 89.6017 40.4587 92.0521 40.4587C94.6555 40.4587 96.8577 38.9395 96.8577 35.2305V26.2186H94.7508V27.0355ZM98.3903 35.6489H100.613V20.8957H98.3903V35.6489ZM103.886 30.7818C103.828 28.8413 105.398 27.8553 106.527 27.8553C107.407 27.8553 108.154 28.291 108.403 28.9187L103.886 30.7818ZM110.778 29.1079C110.357 27.9871 109.075 25.9147 106.449 25.9147C103.848 25.9147 101.684 27.9499 101.684 30.9338C101.684 33.7485 103.828 35.9556 106.7 35.9556C109.017 35.9556 110.357 34.5483 110.911 33.7285L109.188 32.5877C108.613 33.4246 107.828 33.975 106.7 33.975C105.571 33.975 104.766 33.4648 104.249 32.4558L111.006 29.6811L110.778 29.1079ZM56.9324 27.454V29.5837H62.0641C61.9111 30.7818 61.5099 31.6561 60.8952 32.2638C60.1505 33.0061 58.9816 33.8231 56.9324 33.8231C53.7748 33.8231 51.3042 31.2949 51.3042 28.1591C51.3042 25.0204 53.7748 22.4923 56.9324 22.4923C58.6381 22.4923 59.8821 23.1573 60.7999 24.0143L62.3123 22.5095C61.0308 21.2941 59.3279 20.3625 56.9324 20.3625C52.6059 20.3625 48.9692 23.8624 48.9692 28.1591C48.9692 32.4558 52.6059 35.9556 56.9324 35.9556C59.2702 35.9556 61.0308 35.1932 62.4105 33.7686C63.8247 32.3612 64.2663 30.3834 64.2663 28.7868C64.2663 28.291 64.2288 27.8352 64.1509 27.454H56.9324ZM70.0994 33.975C68.5668 33.975 67.2478 32.7224 67.2478 30.9338C67.2478 29.1279 68.5668 27.8925 70.0994 27.8925C71.632 27.8925 72.951 29.1279 72.951 30.9338C72.951 32.7224 71.632 33.975 70.0994 33.975ZM70.0994 25.9147C67.3026 25.9147 65.0254 28.0244 65.0254 30.9338C65.0254 33.8231 67.3026 35.9556 70.0994 35.9556C72.8962 35.9556 75.1734 33.8231 75.1734 30.9338C75.1734 28.0244 72.8962 25.9147 70.0994 25.9147ZM81.1681 33.975C79.6355 33.975 78.3136 32.7224 78.3136 30.9338C78.3136 29.1279 79.6355 27.8925 81.1681 27.8925C82.6978 27.8925 84.0197 29.1279 84.0197 30.9338C84.0197 32.7224 82.6978 33.975 81.1681 33.975ZM81.1681 25.9147C78.3714 25.9147 76.0941 28.0244 76.0941 30.9338C76.0941 33.8231 78.3714 35.9556 81.1681 35.9556C83.962 35.9556 86.2421 33.8231 86.2421 30.9338C86.2421 28.0244 83.962 25.9147 81.1681 25.9147Z" fill="white"/>
<path fill-rule="evenodd" clip-rule="evenodd" d="M10.5411 9.79558C10.2172 10.1413 10.031 10.6735 10.031 11.365V35.9617C10.031 36.6532 10.2172 37.1853 10.5532 37.5191L10.641 37.5927L24.5186 23.8107V23.501L10.6289 9.72192L10.5411 9.79558Z" fill="url(#paint0_linear_1_436)"/>
<path fill-rule="evenodd" clip-rule="evenodd" d="M29.1355 28.4218L24.5066 23.8233V23.5016L29.137 18.9031L29.2369 18.9647L34.7134 22.0555C36.2816 22.9334 36.2816 24.3795 34.7134 25.2695L29.2369 28.3602C29.2354 28.3602 29.1355 28.4218 29.1355 28.4218Z" fill="url(#paint1_linear_1_436)"/>
<path fill-rule="evenodd" clip-rule="evenodd" d="M29.2354 28.3608L24.5066 23.6631L10.5413 37.5323C11.0514 38.0765 11.9096 38.1382 12.8693 37.606L29.2354 28.3608Z" fill="url(#paint2_linear_1_436)"/>
<path fill-rule="evenodd" clip-rule="evenodd" d="M29.2354 18.9667L12.8693 9.73353C11.9112 9.18934 11.0514 9.263 10.5413 9.80719L24.5051 23.6629L29.2354 18.9667Z" fill="url(#paint3_linear_1_436)"/>
<path opacity="0.2" fill-rule="evenodd" clip-rule="evenodd" d="M29.1353 28.2615L12.8813 37.433C11.9731 37.9516 11.1632 37.9155 10.641 37.445L10.5532 37.5322L10.641 37.6059C11.1632 38.0749 11.9731 38.1125 12.8813 37.5938L29.2474 28.3607L29.1353 28.2615Z" fill="black"/>
<path opacity="0.12" fill-rule="evenodd" clip-rule="evenodd" d="M34.7121 25.1092L29.1235 28.2616L29.2234 28.3608L34.7 25.2701C35.4841 24.8251 35.8701 24.2449 35.8701 23.6631C35.8201 24.1952 35.422 24.7019 34.7121 25.1092Z" fill="black"/>
<path opacity="0.25" fill-rule="evenodd" clip-rule="evenodd" d="M12.8692 9.89425L34.7118 22.2181C35.4217 22.6135 35.8198 23.1321 35.8819 23.6643C35.8819 23.084 35.4959 22.5023 34.7118 22.0573L12.8692 9.7334C11.301 8.84346 10.031 9.58458 10.031 11.3645V11.5253C10.031 9.74543 11.301 9.01634 12.8692 9.89425Z" fill="white"/>
<path d="M54.6781 9.98614C54.2307 9.59345 53.6448 9.3412 52.9925 9.3412C51.5321 9.3412 50.4064 10.5394 50.4064 12.0098C50.4064 13.4831 51.5321 14.6698 52.9925 14.6698C54.2509 14.6698 55.1659 13.9446 55.2265 12.7952H53.2378V11.9811H56.3001C56.3001 14.4204 54.9927 15.567 52.9925 15.567C51.0039 15.567 49.4626 13.9761 49.4626 12.0098C49.4626 10.0349 51.0039 8.44116 52.9925 8.44116C53.9161 8.44116 54.7473 8.79659 55.3563 9.3584" fill="white"/>
<path d="M61.7321 8.5249V9.39915H58.5341V11.6177H61.3251V12.4948H58.5341V14.5902H61.8331V15.4673H57.5903V8.5249" fill="white"/>
<path d="M67.851 8.5249V9.41061H65.7296V15.4673H64.7771V9.41061H62.6558V8.5249" fill="white"/>
<path d="M71.4326 15.4673H72.3764V8.5249H71.4326V15.4673Z" fill="white"/>
<path d="M78.8129 8.5249V9.41061H76.6915V15.4673H75.7361V9.41061H73.6147V8.5249" fill="white"/>
<path d="M85.4686 14.6612C86.9406 14.6612 88.0662 13.4831 88.0662 12.0098C88.0662 10.5394 86.9406 9.3498 85.4686 9.3498C84.0082 9.3498 82.8825 10.5394 82.8825 12.0098C82.8825 13.4831 84.0082 14.6612 85.4686 14.6612ZM85.4686 8.44116C87.4688 8.44116 89.0215 10.0349 89.0215 12.0098C89.0215 13.9761 87.4688 15.567 85.4686 15.567C83.48 15.567 81.9387 13.9761 81.9387 12.0098C81.9387 10.0349 83.48 8.44116 85.4686 8.44116Z" fill="white"/>
<path d="M94.6034 15.4673L91.4169 10.239V15.4673H90.4731V8.5249H91.4083L94.5629 13.713V8.5249H95.5067V15.4673" fill="white"/>
<defs>
<linearGradient id="paint0_linear_1_436" x1="23.2724" y1="11.1006" x2="1.06346" y2="17.0592" gradientUnits="userSpaceOnUse">
<stop stop-color="#00A0FF"/>
<stop offset="0.007" stop-color="#00A1FF"/>
<stop offset="0.26" stop-color="#00BEFF"/>
<stop offset="0.512" stop-color="#00D2FF"/>
<stop offset="0.76" stop-color="#00DFFF"/>
<stop offset="1" stop-color="#00E3FF"/>
</linearGradient>
<linearGradient id="paint1_linear_1_436" x1="36.7541" y1="23.6631" x2="9.64999" y2="23.6631" gradientUnits="userSpaceOnUse">
<stop stop-color="#FFE000"/>
<stop offset="0.409" stop-color="#FFBD00"/>
<stop offset="0.775" stop-color="#FFA500"/>
<stop offset="1" stop-color="#FF9C00"/>
</linearGradient>
<linearGradient id="paint2_linear_1_436" x1="26.664" y1="26.2187" x2="8.99968" y2="56.1549" gradientUnits="userSpaceOnUse">
<stop stop-color="#FF3A44"/>
<stop offset="1" stop-color="#C31162"/>
</linearGradient>
<linearGradient id="paint3_linear_1_436" x1="7.02584" y1="1.61312" x2="14.9064" y2="14.983" gradientUnits="userSpaceOnUse">
<stop stop-color="#32A071"/>
<stop offset="0.069" stop-color="#2DA771"/>
<stop offset="0.476" stop-color="#15CF74"/>
<stop offset="0.801" stop-color="#06E775"/>
<stop offset="1" stop-color="#00F076"/>
</linearGradient>
</defs>
</svg>
