<svg width="25" height="24" viewBox="0 0 25 24" fill="none" xmlns="http://www.w3.org/2000/svg">
<path fill-rule="evenodd" clip-rule="evenodd" d="M16.8652 9C16.8652 10.0609 16.4438 11.0783 15.6937 11.8284C14.9435 12.5786 13.9261 13 12.8652 13C11.8044 13 10.787 12.5786 10.0368 11.8284C9.28666 11.0783 8.86523 10.0609 8.86523 9C8.86523 7.93913 9.28666 6.92172 10.0368 6.17157C10.787 5.42143 11.8044 5 12.8652 5C13.9261 5 14.9435 5.42143 15.6937 6.17157C16.4438 6.92172 16.8652 7.93913 16.8652 9ZM14.8652 9C14.8652 9.53043 14.6545 10.0391 14.2794 10.4142C13.9044 10.7893 13.3957 11 12.8652 11C12.3348 11 11.8261 10.7893 11.451 10.4142C11.0759 10.0391 10.8652 9.53043 10.8652 9C10.8652 8.46957 11.0759 7.96086 11.451 7.58579C11.8261 7.21071 12.3348 7 12.8652 7C13.3957 7 13.9044 7.21071 14.2794 7.58579C14.6545 7.96086 14.8652 8.46957 14.8652 9Z" fill="#666666"/>
<path fill-rule="evenodd" clip-rule="evenodd" d="M12.8652 1C6.79023 1 1.86523 5.925 1.86523 12C1.86523 18.075 6.79023 23 12.8652 23C18.9402 23 23.8652 18.075 23.8652 12C23.8652 5.925 18.9402 1 12.8652 1ZM3.86523 12C3.86523 14.09 4.57823 16.014 5.77323 17.542C6.61247 16.4399 7.69513 15.5467 8.93667 14.9323C10.1782 14.3179 11.545 13.9988 12.9302 14C14.2976 13.9987 15.6471 14.3095 16.8762 14.9088C18.1052 15.508 19.1812 16.3799 20.0222 17.458C20.8887 16.3216 21.4721 14.9952 21.7241 13.5886C21.9762 12.182 21.8897 10.7355 21.4717 9.36898C21.0538 8.00243 20.3165 6.75505 19.3207 5.73004C18.325 4.70503 17.0995 3.93186 15.7456 3.47451C14.3917 3.01716 12.9484 2.88877 11.5351 3.09997C10.1218 3.31117 8.77903 3.85589 7.618 4.68905C6.45698 5.52222 5.51105 6.61987 4.85846 7.8912C4.20588 9.16252 3.86541 10.571 3.86523 12ZM12.8652 21C10.7992 21.0031 8.7955 20.2923 7.19323 18.988C7.83816 18.0647 8.69657 17.3109 9.69543 16.7907C10.6943 16.2705 11.804 15.9992 12.9302 16C14.0424 15.9991 15.1387 16.2636 16.1282 16.7714C17.1176 17.2793 17.9716 18.0159 18.6192 18.92C17.0045 20.2667 14.9678 21.0029 12.8652 21Z" fill="#666666"/>
</svg>
